<?xml version="1.0" standalone="no"?>
<!DOCTYPE svg PUBLIC "-//W3C//DTD SVG 20010904//EN"
 "http://www.w3.org/TR/2001/REC-SVG-20010904/DTD/svg10.dtd">
<svg version="1.0" xmlns="http://www.w3.org/2000/svg"
 width="1024.000000pt" height="1024.000000pt" viewBox="0 0 1024.000000 1024.000000"
 preserveAspectRatio="xMidYMid meet">
<metadata>
Created by potrace 1.11, written by Peter Selinger 2001-2013
</metadata>
<g transform="translate(0.000000,1024.000000) scale(0.100000,-0.100000)"
fill="#000000" stroke="none">
<path d="M1820 9325 c-302 -48 -571 -221 -740 -477 -68 -103 -111 -201 -149
-337 l-26 -96 -3 -3240 c-2 -2280 0 -3265 8 -3325 16 -124 45 -222 100 -336
139 -288 390 -494 708 -582 l97 -27 3250 -3 c2436 -2 3273 0 3340 9 119 15
229 50 345 110 278 143 473 386 558 694 l27 100 0 3305 0 3305 -27 97 c-73
264 -235 490 -456 635 -107 71 -204 114 -341 152 l-96 26 -3255 2 c-2677 1
-3270 -1 -3340 -12z m6598 -251 c338 -69 591 -327 664 -675 11 -53 13 -635 13
-3289 l0 -3225 -23 -90 c-78 -310 -313 -546 -622 -628 l-85 -22 -3240 0 -3240
0 -90 23 c-332 84 -579 348 -634 677 -9 53 -11 849 -9 3315 l3 3245 23 73 c99
320 360 551 682 605 14 2 1478 5 3253 6 2906 1 3236 -1 3305 -15z"/>
<path d="M2785 8043 c-33 -2 -154 -14 -270 -28 -115 -13 -257 -27 -315 -30
-163 -9 -145 11 -159 -177 -7 -90 -21 -233 -32 -318 -51 -400 -29 -652 72
-859 87 -176 227 -261 430 -261 199 0 365 102 452 279 31 63 32 70 32 186 -1
96 -5 132 -22 178 -18 51 -18 58 -4 54 131 -42 260 -50 353 -23 116 33 229
132 287 251 94 193 48 451 -104 582 -57 49 -185 109 -287 133 -77 18 -301 42
-353 38 -11 -1 -47 -3 -80 -5z"/>
<path d="M7214 8040 c-274 -22 -482 -122 -568 -271 -32 -55 -66 -185 -66 -249
0 -189 110 -370 275 -451 63 -31 78 -34 177 -38 88 -3 120 1 177 18 38 12 71
21 74 21 3 0 -4 -28 -15 -62 -25 -80 -34 -199 -19 -267 46 -216 245 -371 475
-371 204 0 355 90 438 261 98 204 120 448 73 838 -21 180 -45 440 -45 493 0
15 -9 18 -58 18 -65 0 -315 23 -492 44 -159 20 -307 25 -426 16z"/>
<path d="M3095 6930 c-2 -4 2 -42 10 -85 8 -42 15 -98 15 -123 l0 -47 835
-835 835 -835 115 115 115 115 -831 831 -832 832 -73 7 c-40 4 -98 12 -129 20
-30 7 -57 9 -60 5z"/>
<path d="M7075 6925 c-27 -7 -79 -14 -115 -14 l-65 -1 -2120 -2120 -2120
-2120 115 -115 115 -115 2118 2118 2117 2117 0 48 c0 26 7 82 15 123 15 69 14
96 -3 93 -4 -1 -29 -7 -57 -14z"/>
<path d="M5337 4692 c-59 -59 -107 -112 -107 -117 0 -6 478 -488 1063 -1073
l1062 -1062 115 115 115 115 -1065 1065 c-586 586 -1067 1065 -1070 1065 -3 0
-54 -48 -113 -108z"/>
<path d="M3257 4109 c-27 -5 -127 -41 -224 -80 -96 -38 -367 -144 -601 -235
-235 -91 -433 -171 -441 -177 -9 -7 -11 -24 -8 -50 23 -169 502 -547 728 -574
l51 -6 439 439 439 439 0 45 c0 77 -57 142 -157 180 -61 23 -164 32 -226 19z"/>
<path d="M6831 4110 c-76 -11 -159 -57 -198 -108 -26 -35 -33 -53 -33 -90 l0
-47 439 -439 439 -439 58 6 c185 19 607 330 705 519 22 43 25 91 6 106 -7 6
-215 89 -462 185 -248 97 -520 203 -605 236 -132 52 -247 84 -285 80 -5 -1
-34 -5 -64 -9z"/>
<path d="M4075 3412 c-16 -11 -218 -209 -449 -440 l-419 -420 5 -61 c13 -181
326 -608 516 -705 42 -21 89 -24 106 -5 7 8 73 169 146 359 73 190 180 464
238 610 l106 265 0 105 c1 101 0 108 -34 175 -58 114 -145 162 -215 117z"/>
<path d="M6048 3410 c-100 -54 -160 -225 -129 -369 6 -30 60 -178 120 -330 60
-152 164 -420 231 -596 68 -176 132 -328 143 -337 70 -64 301 135 485 416 86
131 132 235 132 303 0 28 -2 58 -5 65 -3 8 -199 205 -436 437 -390 384 -433
423 -467 427 -25 3 -49 -3 -74 -16z"/>
</g>
</svg>
