<?xml version="1.0" standalone="no"?>
<!DOCTYPE svg PUBLIC "-//W3C//DTD SVG 20010904//EN"
 "http://www.w3.org/TR/2001/REC-SVG-20010904/DTD/svg10.dtd">
<svg version="1.0" xmlns="http://www.w3.org/2000/svg"
 width="80.000000pt" height="80.000000pt" viewBox="0 0 80.000000 80.000000"
 preserveAspectRatio="xMidYMid meet">
<metadata>
Created by potrace 1.11, written by Peter Selinger 2001-2013
</metadata>
<g transform="translate(0.000000,80.000000) scale(0.100000,-0.100000)"
fill="#000000" stroke="none">
<path d="M268 775 c-94 -30 -193 -127 -236 -232 -30 -72 -31 -209 -1 -288 39
-105 138 -200 244 -235 50 -17 187 -18 242 -2 112 33 224 149 259 270 23 79
15 202 -19 276 -34 74 -108 151 -182 189 -53 27 -71 31 -160 34 -68 2 -115 -2
-147 -12z m114 -30 c3 -14 1 -25 -3 -25 -5 0 -9 6 -10 13 0 10 -2 10 -6 0 -8
-22 -23 -14 -23 11 0 23 16 38 31 30 4 -2 9 -15 11 -29z m61 22 c3 10 5 4 6
-14 1 -35 -12 -44 -24 -15 -7 16 -8 15 -15 -3 -7 -16 -9 -14 -9 14 -1 33 0 34
18 17 18 -17 19 -17 24 1z m51 -3 c18 -7 22 -39 6 -49 -21 -13 -38 3 -33 29 6
29 5 28 27 20z m-169 -29 c0 -22 -31 -33 -47 -17 -17 17 -1 44 24 40 15 -2 23
-10 23 -23z m235 0 c0 5 3 6 6 2 3 -3 -3 -16 -15 -28 l-21 -23 0 33 c0 29 2
32 15 21 8 -7 15 -9 15 -5z m-315 -5 c-3 -5 0 -10 7 -11 9 0 10 -2 1 -5 -7 -3
-9 -12 -6 -20 9 -24 -13 -15 -25 10 -8 19 -8 26 1 30 20 8 28 6 22 -4z m280
-58 c65 -31 112 -77 147 -145 33 -62 32 -194 -1 -257 -46 -88 -39 -89 -153 27
l-102 103 54 55 c34 35 63 55 77 55 15 0 23 6 23 18 0 10 7 28 16 40 21 30 12
39 -18 18 -12 -9 -30 -16 -40 -16 -12 0 -18 -8 -18 -23 0 -14 -20 -43 -55 -77
l-55 -54 -60 59 c-33 33 -60 66 -60 75 -1 8 -21 25 -46 36 -25 12 -43 19 -41
15 2 -3 12 -25 23 -48 10 -24 25 -43 32 -43 16 0 110 -78 122 -101 7 -12 -9
-33 -68 -90 -42 -41 -59 -55 -38 -32 22 24 38 45 35 47 -3 3 -32 -10 -64 -28
-46 -25 -61 -39 -63 -59 -2 -17 2 -26 14 -29 15 -3 15 -5 3 -15 -12 -9 -19 -5
-38 22 -77 113 -68 268 20 369 69 79 124 104 229 105 52 1 77 -5 125 -27z
m-59 -367 c-2 -6 10 -38 28 -71 25 -47 36 -60 59 -62 15 -2 27 1 27 7 0 5 -23
36 -52 68 l-52 58 64 -62 c62 -60 63 -63 46 -82 -9 -10 -41 -29 -69 -42 -97
-42 -219 -25 -304 41 l-22 17 52 49 c39 36 42 39 14 9 -41 -45 -47 -65 -18
-65 26 0 68 52 82 103 7 23 26 56 42 74 l30 32 39 -32 c21 -17 37 -36 34 -42z
m-339 -107 c-8 -4 -24 -4 -37 -1 l-23 6 24 18 c22 17 25 17 37 2 10 -14 10
-19 -1 -25z m583 12 c10 -6 11 -10 3 -10 -7 0 -13 -10 -13 -22 l-1 -23 -19 24
c-11 13 -20 27 -20 32 0 12 31 11 50 -1z m-550 -35 c15 -18 6 -45 -15 -45 -18
0 -30 24 -21 45 7 19 20 19 36 0z m484 -21 c5 -13 9 -14 21 -4 18 15 20 -1 3
-18 -9 -9 -16 -8 -30 5 -19 17 -24 33 -9 33 5 0 12 -7 15 -16z m-453 -32 c-8
-15 -8 -22 2 -25 6 -2 9 -8 4 -13 -4 -4 -14 -1 -22 7 -13 13 -13 17 1 37 19
28 30 22 15 -6z m436 2 c3 -8 -2 -23 -11 -32 -15 -15 -17 -15 -33 0 -13 14
-14 20 -3 32 16 20 39 20 47 0z m-377 -19 c5 3 11 1 15 -5 3 -5 1 -10 -4 -10
-6 0 -11 -10 -11 -22 -1 -22 -1 -23 -15 -4 -8 11 -15 16 -15 11 0 -4 -3 -6 -6
-3 -3 4 0 17 7 30 8 14 14 18 17 10 2 -6 8 -10 12 -7z m310 -10 c0 -8 5 -15
10 -15 6 0 10 -5 10 -11 0 -6 -7 -9 -15 -5 -8 3 -15 0 -15 -7 0 -7 -7 -3 -15
7 -17 23 -20 40 -5 31 6 -3 10 -1 10 4 0 6 5 11 10 11 6 0 10 -7 10 -15z
m-264 -20 c-3 -19 -26 -44 -26 -28 0 18 12 43 20 43 5 0 7 -7 6 -15z m101 -39
c-7 -18 -42 -22 -53 -5 -3 6 0 22 7 35 13 24 13 25 32 5 11 -11 17 -26 14 -35z
m116 32 c7 -25 1 -38 -17 -38 -18 0 -27 35 -13 49 16 16 24 13 30 -11z m-189
-10 c-8 -28 -12 -33 -20 -25 -9 8 6 47 17 47 6 0 7 -10 3 -22z m136 12 c0 -5
-7 -10 -15 -10 -8 0 -15 -4 -15 -9 0 -5 6 -8 13 -7 21 2 19 -19 -3 -22 -28 -5
-39 27 -15 44 22 17 35 18 35 4z"/>
<path d="M287 744 c-8 -8 1 -24 14 -24 5 0 9 7 9 15 0 15 -12 20 -23 9z"/>
<path d="M390 675 c0 -9 -9 -19 -20 -22 -22 -6 -26 -19 -8 -25 19 -7 0 -40
-19 -36 -12 3 -17 12 -16 26 2 16 -3 22 -16 22 -11 0 -27 3 -36 6 -16 6 -16 4
-2 -22 8 -16 18 -44 22 -61 l7 -33 98 0 98 0 6 33 c3 17 13 45 21 61 13 25 13
28 -1 22 -9 -3 -27 -6 -41 -6 -21 0 -23 -2 -13 -15 15 -17 5 -35 -20 -35 -20
0 -35 26 -20 35 15 9 12 25 -5 25 -8 0 -15 6 -15 14 0 8 -4 18 -10 21 -5 3
-10 -1 -10 -10z m70 -123 c0 -4 -21 -6 -47 -4 -76 5 -83 10 -15 11 34 0 62 -2
62 -7z"/>
<path d="M210 410 c0 -16 5 -30 10 -30 6 0 10 14 10 30 0 17 -4 30 -10 30 -5
0 -10 -13 -10 -30z"/>
<path d="M243 413 c2 -17 9 -29 20 -31 13 -3 17 4 17 27 0 24 -4 31 -19 31
-15 0 -19 -6 -18 -27z"/>
<path d="M502 432 c13 -5 15 -11 8 -22 -12 -19 -13 -30 -1 -30 5 0 14 14 20
30 9 29 9 30 -17 29 -20 0 -23 -2 -10 -7z"/>
<path d="M557 434 c8 -4 9 -13 3 -30 -5 -13 -6 -24 -1 -24 5 0 14 14 20 30 9
27 8 30 -12 29 -12 0 -17 -3 -10 -5z"/>
<path d="M500 332 c0 -12 104 -112 118 -112 20 0 14 35 -10 57 -28 25 -108 66
-108 55z"/>
<path d="M132 161 c2 -7 7 -12 11 -12 12 1 9 15 -3 20 -7 2 -11 -2 -8 -8z"/>
<path d="M590 110 c0 -5 4 -10 9 -10 6 0 13 5 16 10 3 6 -1 10 -9 10 -9 0 -16
-4 -16 -10z"/>
<path d="M355 51 c-6 -11 9 -23 19 -14 9 9 7 23 -3 23 -6 0 -12 -4 -16 -9z"/>
</g>
</svg>
