<svg xmlns="http://www.w3.org/2000/svg" style="display: none;">

  <symbol id="icon-link" viewBox="0 0 736 736">
    <path class="a" d="M147.65,714.05a104.65,104.65,0,0,1-24.43-2.91c-25.1-6-49.43-21-74.37-45.94s-40-49.27-45.95-74.37c-5.55-23.33-3.15-46.68,7.34-71.39,18.68-44,61.6-86.92,107-132.36,32.6-32.59,63.39-63.39,94.08-85.11A89.1,89.1,0,0,1,229,292a12,12,0,1,1,9.46,22.06,65,65,0,0,0-13.19,7.47c-29,20.55-59.12,50.64-91,82.5-43.74,43.73-85.05,85-101.91,124.76C14.62,570.53,25,607.35,65.82,648.23s77.7,51.2,119.41,33.49c39.72-16.86,81-58.17,124.76-101.91S395,494.76,411.91,455c17.7-41.7,7.37-78.53-33.5-119.4-16-16-31.79-27.46-47.07-34.18a12,12,0,1,1,9.67-22c18.27,8,36.05,20.86,54.37,39.18,24.94,24.94,40,49.26,45.95,74.36,5.56,23.33,3.16,46.68-7.33,71.39-18.69,44-61.6,86.93-107,132.36s-88.35,88.35-132.36,107C178.5,710.65,163,714.05,147.65,714.05Z"/>
    <path class="a" d="M377.87,435.58a12,12,0,0,1-4.83-1c-18.27-8-36.05-20.86-54.37-39.18-24.94-24.94-40-49.26-45.95-74.36-5.56-23.33-3.16-46.68,7.33-71.39,18.69-44,61.6-86.93,107-132.36s88.35-88.35,132.36-107C544.15-.25,567.5-2.65,590.83,2.9c25.1,6,49.42,21,74.37,46s40,49.27,45.95,74.37c5.55,23.33,3.15,46.68-7.34,71.39-18.68,44-61.6,86.92-107,132.35-32.61,32.61-63.4,63.4-94.08,85.12A89.1,89.1,0,0,1,485.1,422,12,12,0,0,1,475.64,400a64.79,64.79,0,0,0,13.19-7.47c29-20.54,59.11-50.63,91-82.48,43.75-43.75,85.06-85.06,101.92-124.78,17.71-41.71,7.38-78.54-33.49-119.41s-77.7-51.2-119.41-33.49c-39.72,16.86-81,58.17-124.76,101.91S319,219.29,302.14,259c-17.7,41.7-7.37,78.53,33.5,119.4,15.95,16,31.79,27.46,47.07,34.18a12,12,0,0,1-4.84,23Z"/>
  </symbol>

  <symbol id="icon-link-bold" viewBox="0 0 1024 1024">
    <path class="b" d="M509.41,565.14a208.87,208.87,0,0,1-27.28-23.27c-96.36-96.36-22.59-170.13,68.41-261.14S715.32,116,811.69,212.31s22.58,170.14-68.42,261.15c-32.43,32.43-62.67,62.67-92.53,83.8"/>
    <path class="b" d="M519,462.4a219.13,219.13,0,0,1,22.68,19.91c96.36,96.37,22.58,170.14-68.42,261.15S308.49,908.23,212.13,811.87s-22.59-170.13,68.41-261.14c32.44-32.43,62.68-62.67,92.53-83.81"/>
  </symbol>

  <symbol id="icon-menu" viewBox="0 0 1024 1024">
    <line class="b" x1="133" y1="512" x2="891" y2="512"/>
    <line class="b" x1="133" y1="281.3" x2="891" y2="281.3"/>
    <line class="b" x1="133" y1="742.7" x2="891" y2="742.7"/>
  </symbol>
  
  <symbol id="icon-close" viewBox="0 0 1024 1024">
    <line class="b" x1="244.01" y1="779.99" x2="779.99" y2="244.01"/>
    <line class="b" x1="244.01" y1="244.01" x2="779.99" y2="779.99"/>
  </symbol>

  <symbol id="icon-search" viewBox="0 0 1024 1024">
    <circle class="b" cx="445.99" cy="432.38" r="244.25"/>
    <line class="b" x1="611.61" y1="612.74" x2="812" y2="813.13"/>
  </symbol>

  <symbol id="icon-plus" viewBox="0 0 1024 1024">
    <line class="b" x1="133" y1="512" x2="891" y2="512"/>
    <line class="b" x1="512" y1="133" x2="512" y2="891"/>
  </symbol>

</svg>