<?xml version="1.0" encoding="iso-8859-1"?>
<!-- Generator: Adobe Illustrator 22.0.1, SVG Export Plug-In . SVG Version: 6.00 Build 0)  -->
<svg version="1.1" id="Layer_1" xmlns="http://www.w3.org/2000/svg" xmlns:xlink="http://www.w3.org/1999/xlink" x="0px" y="0px"
	 viewBox="0 0 960 720" style="enable-background:new 0 0 960 720;" xml:space="preserve">
<g>
	<g>
		<g>
			<g>
				<path style="fill:#AB285C;" d="M117.119,492.769c-18.921,0-34.328-15.4-34.328-34.304V260.55
					c0-18.918,15.407-34.317,34.328-34.317h197.905c18.914,0,34.293,15.4,34.293,34.317v197.915
					c0,18.904-15.38,34.304-34.293,34.304H117.119z M341.586,260.55c0-14.673-11.921-26.569-26.562-26.569H117.119
					c-14.715,0-26.576,11.897-26.576,26.569v197.915c0,14.652,11.861,26.562,26.576,26.562h197.905
					c14.642,0,26.562-11.91,26.562-26.562V260.55z"/>
				<g>
					<g>
						<g>
							<path style="fill:#AB285C;" d="M190.061,427.713c3.771-9.32-3.545-18.045-7.977-13.648l-25.831,25.801
								c-4.411,4.425,14.919,29.443,19.323,25.031C175.575,464.898,186.284,437.062,190.061,427.713z"/>
						</g>
						<g>
							<path style="fill:#AB285C;" d="M154.535,392.198c9.327-3.746,18.08,3.573,13.624,7.984l-25.773,25.856
								c-4.415,4.376-29.415-14.971-25.005-19.333C117.382,406.704,145.18,395.986,154.535,392.198z"/>
						</g>
					</g>
					<g>
						<path style="fill:#AB285C;" d="M284.542,297.595c0,0-6.99,3.497-13.52,0.416c-6.495-3.088-11.463-11.55-7.309-21.12
							c4.152-9.597,19.915-10.774,30.797-9.321c10.917,1.489,18.329,1.69,18.329,1.69l0.173,0.145c0,0,0.218,7.458,1.71,18.357
							c1.478,10.899,0.235,26.645-9.327,30.786c-9.584,4.154-18.032-0.803-21.141-7.333c-3.067-6.46,0.408-13.468,0.408-13.468
							L284.542,297.595z"/>
					</g>
					<g>
						<g>
							<path style="fill:#AB285C;" d="M277.552,392.225c-9.338-3.774-18.045,3.545-13.635,7.97l25.787,25.87
								c4.404,4.376,29.411-14.95,25.004-19.361C314.708,406.704,286.91,395.986,277.552,392.225z"/>
						</g>
						<g>
							<path style="fill:#AB285C;" d="M242.019,427.728c-3.74-9.334,3.552-18.039,8.001-13.648l25.842,25.787
								c4.38,4.452-14.974,29.443-19.354,25.031C256.508,464.898,245.782,437.082,242.019,427.728z"/>
						</g>
					</g>
					<g>
						<path style="fill:#AB285C;" d="M147.423,297.748c0,0,3.477,7.001,0.443,13.51c-3.123,6.488-11.571,11.446-21.144,7.333
							c-9.604-4.169-10.809-19.929-9.303-30.828c1.454-10.892,1.69-18.315,1.69-18.315l0.149-0.138c0,0,7.405-0.25,18.326-1.739
							c10.892-1.454,26.628-0.242,30.779,9.306c4.169,9.584-0.8,18.046-7.326,21.134c-6.457,3.082-13.503-0.374-13.503-0.374
							L147.423,297.748z"/>
					</g>
					<path style="fill:#AB285C;" d="M279.643,302.097c-2.119,0.589-4.649,1.011-7.174,0.976c-0.132,0-0.64,0.27-0.64,0.27
						L138.269,436.84l7.112,7.174l133.511-133.524c0,0,0.287-0.547,0.287-0.616c-0.079-2.59,0.391-5.117,1.004-7.257
						C280.242,302.345,279.906,302.007,279.643,302.097z"/>
					<g>
						<path style="fill:#AB285C;" d="M212.725,355.823l-52.432-52.439c0,0-0.491-0.284-0.589-0.284
							c-2.604,0.083-5.1-0.36-7.271-0.991c-0.239-0.09-0.616,0.257-0.513,0.527c0.582,2.146,1.032,4.646,0.963,7.194
							c0,0.097,0.277,0.623,0.277,0.623l52.45,52.474L212.725,355.823z"/>
						<polygon style="fill:#AB285C;" points="226.45,369.534 219.352,376.639 286.693,444.013 293.817,436.882 						"/>
					</g>
				</g>
			</g>
			<g>
				<path style="fill:#AB285C;" d="M373.068,236.162h64.688v24.595h-39.76v49.538h34.21v24.666h-34.21v74.127h-24.928V236.162z"/>
				<path style="fill:#AB285C;" d="M518.998,375.51c0,24.208-11.969,36.347-35.883,36.409c-23.862,0-35.81-12.146-35.81-36.409
					V269.731c0-24.194,11.948-36.318,35.81-36.318c23.914,0,35.883,12.124,35.883,36.318V375.51z M494.042,269.731
					c0-7.748-3.614-11.654-10.847-11.709h-0.174c-7.156,0-10.747,3.905-10.747,11.709V375.51c0,7.817,3.611,11.723,10.84,11.723
					c7.289,0,10.927-3.906,10.927-11.723V269.731z"/>
				<path style="fill:#AB285C;" d="M534.73,236.162h36.316c22.144,0.069,33.23,12.201,33.23,36.395v26.015
					c0,15.213-6.55,25.226-19.683,30.038l28.055,80.477H585.31l-22.466-76.059l-3.172,0.423v75.636H534.73V236.162z
					 M559.673,260.757v49.538h5.716c3.484,0,5.869-0.242,7.153-0.713c4.518-1.821,6.786-5.497,6.786-11.01v-26.015
					c0-7.859-3.618-11.8-10.834-11.8H559.673z"/>
				<path style="fill:#AB285C;" d="M621.332,236.162h24.959l23.613,100.301V236.162h23.1v172.925h-24.946l-22.729-97.13v97.13
					h-23.997V236.162z"/>
				<path style="fill:#AB285C;" d="M710.519,236.162h38.417c22.165,0.069,33.223,12.201,33.223,36.395v26.015
					c0,11.342-4.546,19.354-13.665,24.056c9.119,4.688,13.665,12.714,13.665,24.056v26.098c0,24.139-11.615,36.264-34.812,36.306
					h-36.828V236.162z M735.447,260.757v49.538h7.863c3.445,0,5.827-0.242,7.133-0.713c4.508-1.821,6.772-5.497,6.772-11.01v-26.015
					c0-7.859-3.615-11.8-10.82-11.8H735.447z M735.447,334.96v49.545h10.948c7.205,0,10.82-3.92,10.82-11.724v-26.098
					c0-5.526-2.265-9.161-6.772-10.927c-1.305-0.527-3.687-0.796-7.133-0.796H735.447z"/>
				<path style="fill:#AB285C;" d="M815.522,236.162l17.028,67.437l17.006-67.437H876l-30.239,98.099l-0.703,2.119v72.708h-24.945
					v-72.708l-0.814-2.119l-30.211-98.099H815.522z"/>
			</g>
		</g>
		<g>
			<path style="fill:#3D3935;" d="M400.524,457.073v3.158h-19.506v23.925h-4.968v-52.821h28.677v3.179h-23.709v22.56H400.524z"/>
			<path style="fill:#3D3935;" d="M411.949,444.249c0-7.693,5.066-13.378,16.504-13.378c11.644,0,16.713,5.685,16.713,13.378v27.005
				c0,7.693-5.069,13.357-16.713,13.357c-11.439,0-16.504-5.664-16.504-13.357V444.249z M416.921,471.483
				c0,5.726,3.233,9.957,11.532,9.957c8.41,0,11.741-4.231,11.741-9.957v-27.47c0-5.719-3.33-9.957-11.741-9.957
				c-8.299,0-11.532,4.238-11.532,9.957V471.483z"/>
			<path style="fill:#3D3935;" d="M453.351,484.155v-52.821h4.965v49.649h23.723v3.172H453.351z"/>
			<path style="fill:#3D3935;" d="M499.623,459.331l-5.197,5.741v19.084h-4.961v-52.821h4.961v27.906l24.585-27.906h5.18
				l-21.57,24.589l22.962,28.232h-5.166L499.623,459.331z"/>
			<path style="fill:#3D3935;" d="M537.982,459.331v24.824h-4.965v-52.821h4.965v24.824h23.508v-24.824h5.066v52.821h-5.066v-24.824
				H537.982z"/>
			<path style="fill:#3D3935;" d="M608.064,444.249v27.005c0,7.693-5.058,13.357-16.702,13.357
				c-11.439,0-16.501-5.664-16.501-13.357v-27.005c0-7.693,5.062-13.378,16.501-13.378
				C603.006,430.871,608.064,436.556,608.064,444.249z M579.812,444.013v27.47c0,5.726,3.234,9.957,11.55,9.957
				c8.389,0,11.751-4.231,11.751-9.957v-27.47c0-5.719-3.362-9.957-11.751-9.957C583.046,434.056,579.812,438.294,579.812,444.013z
				 M588.326,421.544v6.398h-4.408v-6.398H588.326z M598.785,421.544v6.398h-4.411v-6.398H598.785z"/>
			<path style="fill:#3D3935;" d="M648.497,444.249v3.913h-4.74v-4.148c0-5.657-3.14-9.957-11.436-9.957
				c-8.288,0-11.422,4.3-11.422,9.957v27.47c0,5.657,3.133,9.888,11.422,9.888c8.295,0,11.436-4.231,11.436-9.888v-11.384h-10.044
				v-3.192h14.784v14.347c0,7.624-4.74,13.357-16.273,13.357c-11.546,0-16.286-5.734-16.286-13.357v-27.005
				c0-7.63,4.739-13.378,16.286-13.378C643.757,430.871,648.497,436.619,648.497,444.249z"/>
			<path style="fill:#3D3935;" d="M688.603,444.09v1.135h-4.757v-1.364c0-5.567-3.001-9.805-11.208-9.805
				c-8.185,0-11.207,4.148-11.207,9.722c0,12.838,27.276,13.06,27.276,27.636c0,7.61-4.733,13.198-16.273,13.198
				c-11.536,0-16.279-5.588-16.279-13.198v-2.728h4.744v2.943c0,5.664,3.112,9.743,11.418,9.743c8.313,0,11.429-4.079,11.429-9.743
				c0-12.679-27.265-12.901-27.265-27.615c0-7.935,4.951-13.052,16.058-13.143C683.974,430.871,688.603,436.48,688.603,444.09z"/>
			<path style="fill:#3D3935;" d="M706.815,459.331l-5.173,5.741v19.084h-4.955v-52.821h4.955v27.906l24.582-27.906h5.166
				l-21.546,24.589l22.958,28.232h-5.173L706.815,459.331z"/>
			<path style="fill:#3D3935;" d="M739.169,444.249c0-7.693,5.065-13.378,16.49-13.378c11.651,0,16.695,5.685,16.695,13.378v27.005
				c0,7.693-5.044,13.357-16.695,13.357c-11.425,0-16.49-5.664-16.49-13.357V444.249z M744.131,471.483
				c0,5.726,3.223,9.957,11.529,9.957c8.417,0,11.744-4.231,11.744-9.957v-27.47c0-5.719-3.328-9.957-11.744-9.957
				c-8.306,0-11.529,4.238-11.529,9.957V471.483z"/>
			<path style="fill:#3D3935;" d="M780.57,484.155v-52.821h4.961v49.649h23.706v3.172H780.57z"/>
			<path style="fill:#3D3935;" d="M823.911,472.473l-3.781,11.682h-4.535l16.501-52.882h7.226l16.806,52.882h-4.944l-3.788-11.682
				H823.911z M824.648,469.447h22.006l-11.113-34.186L824.648,469.447z"/>
		</g>
	</g>
</g>
</svg>
