<svg xmlns="http://www.w3.org/2000/svg" width="793.21" height="266.54" viewBox="0 0 793.21 266.54">
  <defs>
    <style>
      .a {
        fill: #fff;
      }
    </style>
  </defs>
  <title>Asset 2</title>
  <g>
    <g>
      <g>
        <path class="a" d="M34.33,266.54A34.37,34.37,0,0,1,0,232.23V34.32A34.37,34.37,0,0,1,34.33,0h197.9a34.35,34.35,0,0,1,34.3,34.32V232.23a34.34,34.34,0,0,1-34.3,34.31ZM258.8,34.32A26.58,26.58,0,0,0,232.23,7.75H34.33A26.55,26.55,0,0,0,7.75,34.32V232.23A26.56,26.56,0,0,0,34.33,258.8h197.9a26.6,26.6,0,0,0,26.57-26.57Z"/>
        <g>
          <g>
            <path class="a" d="M107.27,201.48c3.77-9.32-3.54-18-8-13.65l-25.83,25.8c-4.41,4.43,14.92,29.45,19.32,25C92.78,238.67,103.49,210.83,107.27,201.48Z"/>
            <path class="a" d="M71.74,166c9.33-3.75,18.08,3.57,13.63,8L59.6,199.81c-4.42,4.37-29.42-15-25-19.34C34.59,180.47,62.39,169.75,71.74,166Z"/>
          </g>
          <path class="a" d="M201.75,71.36s-7,3.5-13.52.42-11.46-11.55-7.31-21.12,19.92-10.77,30.8-9.32S230.05,43,230.05,43l.17.14s.22,7.46,1.71,18.36.24,26.65-9.32,30.79-18-.81-21.15-7.34.41-13.46.41-13.46Z"/>
          <g>
            <path class="a" d="M194.76,166c-9.34-3.77-18,3.55-13.63,8l25.78,25.87c4.41,4.38,29.42-15,25-19.36C231.92,180.47,204.12,169.75,194.76,166Z"/>
            <path class="a" d="M159.23,201.5c-3.74-9.34,3.55-18,8-13.65l25.84,25.78c4.38,4.46-15,29.45-19.35,25C173.72,238.67,163,210.85,159.23,201.5Z"/>
          </g>
          <path class="a" d="M64.63,71.52s3.48,7,.45,13.51S53.51,96.47,43.93,92.36s-10.81-19.93-9.3-30.83,1.69-18.31,1.69-18.31l.15-.14s7.4-.25,18.32-1.74,26.63-.24,30.78,9.31-.8,18-7.32,21.13-13.51-.37-13.51-.37Z"/>
          <path class="a" d="M196.85,75.86a25.83,25.83,0,0,1-7.17,1,3.14,3.14,0,0,0-.64.27L55.48,210.61l7.11,7.17L196.1,84.26a5.25,5.25,0,0,0,.29-.62,24.14,24.14,0,0,1,1-7.26C197.45,76.11,197.12,75.77,196.85,75.86Z"/>
          <g>
            <path class="a" d="M129.93,129.59,77.5,77.15a3.29,3.29,0,0,0-.59-.28,23.68,23.68,0,0,1-7.27-1c-.24-.09-.61.25-.51.52a25.33,25.33,0,0,1,1,7.2,3.72,3.72,0,0,0,.28.62l52.45,52.48Z"/>
            <polygon class="a" points="143.66 143.3 136.56 150.41 203.9 217.78 211.03 210.65 143.66 143.3"/>
          </g>
        </g>
      </g>
      <g>
        <path class="a" d="M290.28,9.93H355v24.6H315.21V84.06h34.21v24.67H315.21v74.12H290.28Z"/>
        <path class="a" d="M436.21,149.28q0,36.32-35.89,36.41t-35.81-36.41V43.5q0-36.29,35.81-36.32T436.21,43.5Zm-25-105.78q0-11.62-10.85-11.71h-.17c-7.15,0-10.75,3.91-10.75,11.71V149.28q0,11.73,10.84,11.72t10.93-11.72Z"/>
        <path class="a" d="M451.94,9.93h36.32q33.21.11,33.23,36.39v26q0,22.82-19.69,30l28.06,80.47H502.52l-22.47-76-3.17.42v75.63H451.94Zm24.94,24.6V84.06h5.72a24,24,0,0,0,7.15-.71c4.52-1.82,6.79-5.5,6.79-11v-26q0-11.77-10.84-11.79Z"/>
        <path class="a" d="M538.54,9.93h25l23.61,100.3V9.93h23.1V182.85H585.27L562.54,85.72v97.13h-24Z"/>
        <path class="a" d="M627.73,9.93h38.42q33.24.11,33.22,36.39v26q0,17-13.67,24.06,13.68,7,13.67,24v26.1q0,36.21-34.81,36.3H627.73Zm24.93,24.6V84.06h7.86a24.12,24.12,0,0,0,7.13-.71c4.51-1.82,6.77-5.5,6.77-11v-26q0-11.77-10.82-11.79Zm0,74.2v49.54H663.6c7.21,0,10.82-3.92,10.82-11.72v-26.1q0-8.28-6.77-10.93c-1.3-.52-3.69-.79-7.13-.79Z"/>
        <path class="a" d="M732.73,9.93l17,67.44,17-67.44h26.45L763,108l-.7,2.12v72.7H737.32v-72.7l-.81-2.12L706.3,9.93Z"/>
      </g>
    </g>
    <g>
      <path class="a" d="M317.73,230.84V234h-19.5v23.92h-5V205.1h28.68v3.18H298.23v22.56Z"/>
      <path class="a" d="M329.16,218c0-7.7,5.06-13.38,16.5-13.38,11.65,0,16.72,5.68,16.72,13.38v27c0,7.7-5.07,13.36-16.72,13.36-11.44,0-16.5-5.66-16.5-13.36Zm5,27.23c0,5.73,3.23,10,11.53,10s11.74-4.23,11.74-10V217.78c0-5.72-3.33-10-11.74-10s-11.53,4.24-11.53,10Z"/>
      <path class="a" d="M370.56,257.92V205.1h5v49.65h23.72v3.17Z"/>
      <path class="a" d="M416.83,233.1l-5.19,5.74v19.08h-5V205.1h5V233l24.58-27.91h5.18l-21.57,24.59,23,28.23h-5.16Z"/>
      <path class="a" d="M455.19,233.1v24.82h-5V205.1h5v24.83H478.7V205.1h5.06v52.82H478.7V233.1Z"/>
      <path class="a" d="M525.27,218v27c0,7.7-5,13.36-16.7,13.36-11.44,0-16.5-5.66-16.5-13.36V218c0-7.7,5.06-13.38,16.5-13.38C520.22,204.64,525.27,210.32,525.27,218ZM497,217.78v27.47c0,5.73,3.24,10,11.55,10s11.75-4.23,11.75-10V217.78c0-5.72-3.36-10-11.75-10S497,212.06,497,217.78Zm8.52-22.47v6.4h-4.41v-6.4Zm10.45,0v6.4h-4.41v-6.4Z"/>
      <path class="a" d="M565.71,218v3.91H561v-4.15c0-5.66-3.14-10-11.44-10s-11.42,4.3-11.42,10v27.47c0,5.66,3.13,9.89,11.42,9.89S561,250.91,561,245.25V233.87H550.92v-3.19h14.79V245c0,7.63-4.74,13.36-16.28,13.36s-16.28-5.73-16.28-13.36V218c0-7.63,4.74-13.38,16.28-13.38S565.71,210.39,565.71,218Z"/>
      <path class="a" d="M605.81,217.86V219h-4.75v-1.36c0-5.57-3-9.81-11.21-9.81s-11.21,4.15-11.21,9.73c0,12.83,27.28,13.06,27.28,27.63,0,7.61-4.74,13.2-16.28,13.2s-16.28-5.59-16.28-13.2v-2.73h4.75v3c0,5.66,3.11,9.74,11.42,9.74S601,251.06,601,245.4c0-12.68-27.26-12.9-27.26-27.62,0-7.93,4.95-13.05,16.06-13.14C601.18,204.64,605.81,210.25,605.81,217.86Z"/>
      <path class="a" d="M624,233.1l-5.17,5.74v19.08h-5V205.1h5V233l24.58-27.91h5.17l-21.55,24.59,23,28.23h-5.17Z"/>
      <path class="a" d="M656.38,218c0-7.7,5.06-13.38,16.49-13.38,11.65,0,16.69,5.68,16.69,13.38v27c0,7.7-5,13.36-16.69,13.36-11.43,0-16.49-5.66-16.49-13.36Zm5,27.23c0,5.73,3.22,10,11.53,10s11.74-4.23,11.74-10V217.78c0-5.72-3.32-10-11.74-10s-11.53,4.24-11.53,10Z"/>
      <path class="a" d="M697.78,257.92V205.1h5v49.65h23.71v3.17Z"/>
      <path class="a" d="M741.12,246.24l-3.78,11.68H732.8L749.3,205h7.23l16.81,52.88h-5l-3.79-11.68Zm.74-3h22L752.75,209Z"/>
    </g>
  </g>
</svg>
